<?xml version="1.0" encoding="UTF-8" standalone="no"?>
<!-- Created with Inkscape (http://www.inkscape.org/) -->

<svg
   width="59.002991mm"
   height="41.909599mm"
   viewBox="0 0 59.00299 41.9096"
   version="1.1"
   id="svg8202"
   xml:space="preserve"
   inkscape:version="1.2.2 (732a01da63, 2022-12-09)"
   sodipodi:docname="no-projects.svg"
   xmlns:inkscape="http://www.inkscape.org/namespaces/inkscape"
   xmlns:sodipodi="http://sodipodi.sourceforge.net/DTD/sodipodi-0.dtd"
   xmlns="http://www.w3.org/2000/svg"
   xmlns:svg="http://www.w3.org/2000/svg"><sodipodi:namedview
     id="namedview8204"
     pagecolor="#ffffff"
     bordercolor="#eeeeee"
     borderopacity="1"
     inkscape:showpageshadow="0"
     inkscape:pageopacity="0"
     inkscape:pagecheckerboard="0"
     inkscape:deskcolor="#505050"
     inkscape:document-units="mm"
     showgrid="false"
     inkscape:zoom="2.6532575"
     inkscape:cx="6.0303231"
     inkscape:cy="119.09888"
     inkscape:window-width="2560"
     inkscape:window-height="1369"
     inkscape:window-x="-8"
     inkscape:window-y="564"
     inkscape:window-maximized="1"
     inkscape:current-layer="layer1" /><defs
     id="defs8199" /><g
     inkscape:label="Livello 1"
     inkscape:groupmode="layer"
     id="layer1"
     transform="translate(-37.809631,-69.419851)"><ellipse
       style="fill:#b7bec8;stroke-width:10.8817;paint-order:markers stroke fill;stop-color:#000000"
       id="path2402"
       cx="67.311127"
       cy="105.37659"
       rx="29.501495"
       ry="3.9256022" /><path
       id="path15829"
       style="fill:#f2f2f2;stroke:#4d4d4d;stroke-width:1.75073;stroke-dasharray:none;paint-order:markers stroke fill;stop-color:#000000;stroke-opacity:1"
       d="m 83.273531,81.50669 c -0.136453,0.0023 -0.292299,0.01165 -0.471589,0.02406 l -13.312581,0.09243 c -0.51167,-0.0043 -0.760704,0.127005 -1.004868,0.686415 l -1.543218,2.817859 H 49.76473 c -0.815685,0 -1.472227,0.747883 -1.472227,1.677048 V 103.5769 c 0,0.92916 0.656542,1.67704 1.472227,1.67704 h 32.915515 c 0.815683,0 1.472226,-0.74788 1.472226,-1.67704 V 86.8045 c 0,-0.07245 -0.0057,-0.142785 -0.01361,-0.21276 h 0.04479 l 0.03466,-3.63617 c -0.01214,-1.191569 0.01033,-1.466257 -0.944861,-1.448882 z" /><rect
       style="fill:#ffffff;stroke:#4d4d4d;stroke-width:1.57;stroke-dasharray:none;paint-order:markers stroke fill;stop-color:#000000;stroke-opacity:1"
       id="rect16569"
       width="19.839731"
       height="20.639187"
       x="79.54232"
       y="51.3605"
       ry="0"
       transform="rotate(15)" /><path
       style="fill:none;stroke:#000000;stroke-width:1.04439;stroke-linecap:round;stroke-linejoin:miter;stroke-dasharray:none;stroke-opacity:1"
       d="m 65.701052,75.47042 12.887113,3.453092"
       id="path16571" /><path
       style="fill:none;stroke:#000000;stroke-width:1.04439;stroke-linecap:round;stroke-linejoin:miter;stroke-dasharray:none;stroke-opacity:1"
       d="M 64.855396,78.626449 77.74251,82.079541"
       id="path16573" /><rect
       style="fill:#e6e6e6;stroke:none;stroke-width:0.480622;stroke-dasharray:none;paint-order:markers stroke fill;stop-color:#000000"
       id="rect16580"
       width="2.8368702"
       height="20.675333"
       x="79.42305"
       y="51.356884"
       ry="0"
       transform="rotate(15)" /><path
       style="fill:none;stroke:#4d4d4d;stroke-width:1.04439;stroke-linecap:round;stroke-linejoin:miter;stroke-dasharray:none;stroke-opacity:1"
       d="m 65.701052,75.47042 12.887113,3.453092"
       id="path16582" /><path
       style="fill:none;stroke:#4d4d4d;stroke-width:1.04439;stroke-linecap:round;stroke-linejoin:miter;stroke-dasharray:none;stroke-opacity:1"
       d="M 64.855396,78.626449 77.74251,82.079541"
       id="path16584" /><path
       id="rect13638"
       style="fill:#ffffff;stroke:#4d4d4d;stroke-width:1.64518;stroke-dasharray:none;paint-order:markers stroke fill;stop-color:#000000;stroke-opacity:1"
       d="m 85.777165,84.398144 c -0.136846,0.0021 -0.293158,0.01017 -0.472976,0.02119 l -13.351811,0.08137 c -0.513177,-0.0038 -0.762946,0.111817 -1.007828,0.604358 l -1.547767,2.480999 h -17.22716 c -0.818088,0 -1.476564,0.658478 -1.476564,1.476566 v 14.767353 c 0,0.81809 0.658476,1.47657 1.476564,1.47657 h 33.012508 c 0.818088,0 1.476566,-0.65848 1.476566,-1.47657 V 89.062632 c 0,-0.06379 -0.0057,-0.125725 -0.01361,-0.187325 h 0.04493 l 0.03476,-3.201486 c -0.01214,-1.049125 0.01033,-1.290974 -0.947646,-1.275677 z" /><g
       id="g13112"
       transform="matrix(0.35058456,0,0,0.35058456,74.565546,94.864642)"
       style="fill:#ffffff;stroke:#4d4d4d;stroke-width:1.98374;stroke-dasharray:none;stroke-opacity:1">
	<g
   id="g13110"
   style="fill:#ffffff;stroke:#4d4d4d;stroke-width:1.98374;stroke-dasharray:none;stroke-opacity:1">
		<path
   d="m 43.454,18.443 h -2.437 c -0.453,-1.766 -1.16,-3.42 -2.082,-4.933 l 1.752,-1.756 C 41.16,11.281 41.42,10.65 41.42,9.98 41.42,9.311 41.158,8.679 40.687,8.207 L 37.767,5.29 C 36.82,4.342 35.165,4.343 34.222,5.289 L 32.396,7.104 C 30.9,6.232 29.296,5.56 27.529,5.128 V 2.52 C 27.529,1.137 26.424,0 25.041,0 H 20.913 C 19.53,0 18.442,1.137 18.442,2.52 v 2.607 c -1.766,0.431 -3.38,1.104 -4.878,1.977 L 11.739,5.289 C 10.793,4.341 9.137,4.342 8.188,5.288 L 5.27,8.205 C 4.802,8.672 4.535,9.318 4.535,9.978 c 0,0.669 0.259,1.299 0.733,1.772 L 7.02,13.51 C 6.099,15.023 5.391,16.677 4.939,18.443 H 2.501 C 1.117,18.443 0,19.555 0,20.935 v 4.125 c 0,1.384 1.117,2.471 2.501,2.471 h 2.438 c 0.452,1.766 1.159,3.43 2.079,4.943 l -1.752,1.763 c -0.474,0.473 -0.734,1.106 -0.734,1.776 0,0.67 0.261,1.303 0.734,1.776 l 2.92,2.919 c 0.474,0.473 1.103,0.733 1.772,0.733 0.669,0 1.299,-0.261 1.773,-0.733 l 1.833,-1.816 c 1.498,0.873 3.112,1.545 4.878,1.978 v 2.604 c 0,1.383 1.088,2.498 2.471,2.498 h 4.128 c 1.383,0 2.488,-1.115 2.488,-2.498 v -2.605 c 1.767,-0.432 3.371,-1.104 4.869,-1.977 l 1.817,1.812 c 0.474,0.475 1.104,0.735 1.775,0.735 0.67,0 1.301,-0.261 1.774,-0.733 l 2.92,-2.917 c 0.473,-0.472 0.732,-1.103 0.734,-1.772 0,-0.67 -0.262,-1.299 -0.734,-1.773 l -1.75,-1.77 c 0.92,-1.514 1.627,-3.179 2.08,-4.943 h 2.438 c 1.383,0 2.52,-1.087 2.52,-2.471 v -4.125 c 10e-4,-1.38 -1.135,-2.492 -2.518,-2.492 z M 22.976,30.85 c -4.378,0 -7.928,-3.517 -7.928,-7.852 0,-4.338 3.55,-7.85 7.928,-7.85 4.379,0 7.931,3.512 7.931,7.85 -0.001,4.336 -3.552,7.852 -7.931,7.852 z"
   id="path13108"
   sodipodi:nodetypes="scccscccccsscccccccscccsssscccsccscccsssscccsccccccsscsssscs"
   style="fill:#ffffff;stroke:#4d4d4d;stroke-width:1.98374;stroke-dasharray:none;stroke-opacity:1" />
	</g>
</g><circle
       style="fill:#4d4d4d;fill-opacity:1;stroke:#4d4d4d;stroke-width:1.00574;stroke-linecap:round;stroke-dasharray:none;paint-order:markers stroke fill;stop-color:#000000;stroke-opacity:1"
       id="path16654"
       cx="56.5975"
       cy="95.889717"
       r="0.98325622" /><path
       style="fill:none;stroke:#4d4d4d;stroke-width:0.656103;stroke-linecap:round;stroke-linejoin:miter;stroke-dasharray:none;stroke-opacity:1"
       d="m 58.579644,101.66873 2.957569,-1.707557 2.793001,1.612537"
       id="path16658" /><path
       style="fill:none;stroke:#4d4d4d;stroke-width:0.656103;stroke-linecap:round;stroke-linejoin:miter;stroke-dasharray:none;stroke-opacity:1"
       d="m 52.707964,93.619836 c 1.878934,-0.37323 3.331131,-1.124873 4.178764,-2.41261"
       id="path16660"
       sodipodi:nodetypes="cc" /><path
       style="fill:none;stroke:#4d4d4d;stroke-width:0.656103;stroke-linecap:round;stroke-linejoin:miter;stroke-dasharray:none;stroke-opacity:1"
       d="m 70.192826,93.619836 c -1.878934,-0.37323 -3.331131,-1.124873 -4.178763,-2.41261"
       id="path16662"
       sodipodi:nodetypes="cc" /><circle
       style="fill:#4d4d4d;fill-opacity:1;stroke:#4d4d4d;stroke-width:1.00574;stroke-linecap:round;stroke-dasharray:none;paint-order:markers stroke fill;stop-color:#000000;stroke-opacity:1"
       id="circle17492"
       cx="66.575066"
       cy="95.889717"
       r="0.98325622" /></g></svg>
